<svg version="1.1" id="Layer_1" xmlns="http://www.w3.org/2000/svg" xmlns:xlink="http://www.w3.org/1999/xlink" x="0px" y="0px"
	 width="100%" viewBox="0 0 740 740" enable-background="new 0 0 740 740" xml:space="preserve">
<path fill="none" opacity="1.000000" stroke="#000000" stroke-linecap="round" stroke-linejoin="round" stroke-width="4.000000"
	d="
M308.000000,684.500000 
	C311.500000,679.166687 315.126770,673.910400 318.439453,668.463196 
	C319.821838,666.190002 321.348907,665.395447 324.000946,665.432983 
	C335.165375,665.591370 346.333405,665.523743 357.499969,665.490112 
	C363.228058,665.472900 363.773560,664.914734 364.500916,659.000122 
	C367.165314,637.333130 369.836884,615.667114 372.497101,593.999634 
	C373.056885,589.439819 371.536346,587.525391 366.999969,587.521240 
	C327.166656,587.484619 287.333313,587.479675 247.500031,587.528198 
	C243.001450,587.533630 241.956116,588.919922 242.507599,593.499084 
	C245.157349,615.501099 247.810989,637.502747 250.515244,659.498108 
	C251.215286,665.191895 251.664154,665.496948 257.500000,665.498962 
	C268.166656,665.502625 278.838776,665.695129 289.497162,665.398499 
	C293.440521,665.288757 295.497314,666.636841 297.642731,669.906372 
	C300.856445,674.803833 303.079712,680.416321 307.500000,684.500000 
"/>
<path fill="none" opacity="1.000000" stroke="#000000" stroke-linecap="round" stroke-linejoin="round" stroke-width="3.000000"
	d="
M251.000000,286.750000 
	C250.503326,284.140015 248.216217,282.751465 246.414886,281.637665 
	C242.572876,279.262085 241.874374,276.104614 241.935364,271.999054 
	C242.116013,259.835052 241.839630,247.663361 242.091019,235.501877 
	C242.173828,231.495880 240.996918,230.391434 236.999542,230.412231 
	C206.333710,230.571976 175.666672,230.505875 145.000000,230.487823 
	C142.767517,230.486511 140.575851,230.576340 138.250000,231.611603 
	C138.250000,250.166672 138.250000,268.833344 138.250000,287.735077 
	C140.326630,287.830750 142.163284,287.988373 144.000000,287.989166 
	C177.666672,288.003967 211.333435,287.962372 244.999817,288.060791 
	C248.201096,288.070190 251.272049,286.502319 254.500000,287.500000 
"/>
<path fill="none" opacity="1.000000" stroke="#000000" stroke-linecap="round" stroke-linejoin="round" stroke-width="3.000000"
	d="
M634.000000,461.500000 
	C640.526855,461.940002 645.857483,458.921051 650.374084,454.859924 
	C652.605652,452.853424 654.719543,452.719604 656.990723,453.061493 
	C674.771057,455.738068 692.266479,454.771423 709.503235,449.510620 
	C720.787537,446.066589 725.489990,439.882721 725.473816,428.000031 
	C725.467407,423.333160 725.616028,418.597626 724.911926,414.013519 
	C723.122070,402.360870 715.118958,396.500000 704.492920,393.525299 
	C698.292725,391.789612 691.964905,390.709930 685.501526,390.460907 
	C683.823425,390.396240 682.163757,389.851074 680.489441,389.525391 
	C680.567505,385.828827 680.184570,382.137177 681.266357,378.480988 
	C684.349182,377.378479 687.661438,376.150940 691.002808,375.008148 
	C697.458557,372.800171 700.294617,367.731720 700.902649,361.490509 
	C701.469116,355.676239 701.344727,349.719879 699.931213,344.017029 
	C697.832520,335.549561 691.691650,331.615387 683.527039,329.400330 
	C664.096741,324.128967 645.231812,324.823486 626.453552,332.384613 
	C618.798157,335.467102 616.225281,341.448639 615.110291,348.517395 
	C614.494690,352.420288 614.784607,356.514099 615.045410,360.497040 
	C615.568726,368.488678 619.873657,373.554169 627.491455,376.026337 
	C635.151917,378.512299 642.934082,380.284515 651.000610,380.473389 
	C656.830750,380.609894 662.666687,380.500000 668.500122,380.500000 
	C669.180481,383.666656 669.326233,386.833344 668.500244,390.278168 
	C657.698853,391.480865 646.905090,392.755768 636.957092,397.917358 
	C630.756409,401.134674 626.824341,405.382477 625.362061,412.471558 
	C623.832520,419.887207 623.738098,427.147919 625.019165,434.496674 
	C626.362671,442.204010 631.848999,446.169281 638.507019,448.700195 
	C638.556213,453.717865 634.654846,456.755798 633.343872,460.951233 
	C632.865234,462.483154 630.413940,462.824249 628.500000,462.500000 
"/>
<path fill="none" opacity="1.000000" stroke="#000000" stroke-linecap="round" stroke-linejoin="round" stroke-width="4.000000"
	d="
M593.000061,654.500000 
	C592.833374,653.833313 592.342102,652.713501 592.547607,652.566345 
	C597.460754,649.047058 600.650818,643.943909 604.373657,639.396545 
	C606.011353,637.396179 607.599731,637.512878 609.500000,637.510864 
	C627.166687,637.492432 644.834595,637.386108 662.499023,637.587097 
	C666.477051,637.632385 667.653931,636.583252 667.601379,632.498718 
	C667.367737,614.335022 667.500000,596.166687 667.500000,577.500000 
	C636.337769,577.500000 605.170227,577.500000 573.500000,577.500000 
	C573.500000,584.158325 573.500000,590.829163 573.500000,597.500000 
	C573.500000,609.333313 573.618408,621.168579 573.427673,632.998840 
	C573.370667,636.532104 574.463867,637.705872 578.002930,637.590698 
	C581.482971,637.477417 585.674683,636.106445 588.327820,638.216492 
	C591.140686,640.453674 590.585449,644.982361 591.424255,648.517944 
	C591.715881,649.747131 592.569336,650.465332 593.000000,651.500000 
"/>
<path fill="none" opacity="1.000000" stroke="#000000" stroke-linecap="round" stroke-linejoin="round" stroke-width="4.000000"
	d="
M138.499985,518.500000 
	C141.833328,514.666687 145.544968,511.088654 148.365738,506.909393 
	C150.217163,504.166290 152.288422,503.968597 155.000061,503.975922 
	C172.499939,504.023010 190.001434,503.880493 207.498917,504.090271 
	C211.500305,504.138245 212.640488,503.000549 212.590378,498.998871 
	C212.377518,482.001526 212.458633,464.999817 212.539383,448.000183 
	C212.553375,445.054047 212.150772,443.409729 208.499664,443.426056 
	C179.000259,443.557892 149.500000,443.498352 120.000015,443.520721 
	C119.666481,443.520966 119.333176,443.833038 118.750000,444.124268 
	C118.750000,463.663849 118.750000,483.331909 118.750000,503.431366 
	C122.214348,504.701630 126.162392,503.892120 130.000702,503.931366 
	C132.660812,503.958649 134.177063,504.321594 134.608475,507.485199 
	C135.162216,511.546051 136.500000,515.500000 137.500000,519.500000 
"/>
<path fill="none" opacity="1.000000" stroke="#000000" stroke-linecap="round" stroke-linejoin="round" stroke-width="3.000000"
	d="
M78.000000,452.000000 
	C78.000000,451.833344 77.927109,451.593842 78.010452,451.510437 
	C82.715561,446.800415 84.028046,438.854431 89.708725,435.901550 
	C94.318207,433.505432 100.392303,433.266815 105.494698,430.988129 
	C118.227036,425.301941 128.289627,416.896301 133.513168,403.505127 
	C139.640320,387.797485 136.318405,373.741150 125.439690,361.553833 
	C101.858139,335.135620 55.117851,335.076324 30.975286,359.976044 
	C12.310979,379.225739 15.765674,405.661469 34.474613,421.529938 
	C42.685093,428.493866 51.891792,433.184540 62.506741,434.959686 
	C65.420815,435.447052 67.018173,436.996216 68.600830,439.434540 
	C71.388100,443.728821 73.567360,448.504822 77.500000,452.000000 
"/>
<path fill="none" opacity="1.000000" stroke="#000000" stroke-linecap="round" stroke-linejoin="round" stroke-width="3.000000"
	d="
M205.000000,605.750000 
	C203.344894,600.932373 198.889816,598.515137 195.339844,595.702087 
	C191.644180,592.773621 190.808365,589.701843 190.947479,585.498291 
	C191.151474,579.333862 191.000000,573.157654 191.000000,566.500000 
	C188.844055,566.500000 187.172028,566.500000 185.500000,566.500000 
	C152.666672,566.500000 119.833130,566.552429 87.000290,566.424927 
	C83.427528,566.411072 82.347961,567.432861 82.423065,571.001648 
	C82.640457,581.330383 82.613022,591.668579 82.440590,601.999023 
	C82.377632,605.770447 83.759430,607.061951 87.500122,607.053284 
	C125.166588,606.965820 162.833344,606.983521 200.499954,607.035156 
	C203.166992,607.038757 205.833328,605.095764 208.500000,607.000000 
"/>
<path fill="none" opacity="1.000000" stroke="#000000" stroke-linecap="round" stroke-linejoin="round" stroke-width="4.000000"
	d="
M55.500000,658.000000 
	C57.103207,658.801270 58.825596,658.487915 60.500004,658.488586 
	C97.666664,658.503479 134.833328,658.500977 172.000000,658.499023 
	C177.492584,658.498779 177.497391,658.492554 177.499008,653.000000 
	C177.502335,641.666687 177.500000,630.333313 177.499985,619.000061 
	C176.058777,617.539429 174.213287,618.013794 172.500000,618.012878 
	C139.833328,617.995483 107.166664,617.996033 74.500000,618.003906 
	C69.028847,618.005188 69.024857,618.028870 69.001793,623.500000 
	C68.991257,625.999939 68.730331,628.535034 69.049461,630.993591 
	C70.100342,639.089661 68.489899,645.851868 61.063244,650.598938 
	C58.660183,652.135010 56.724171,654.647766 55.097775,657.065796 
	C54.029240,658.654297 52.843834,658.413391 51.500000,658.500000 
"/>
<path fill="none" opacity="1.000000" stroke="#000000" stroke-linecap="round" stroke-linejoin="round" stroke-width="4.000000"
	d="
M303.500000,542.000000 
	C309.512085,539.320618 314.059357,534.512024 319.402466,530.857422 
	C321.461823,529.448853 323.254486,528.988464 325.500000,528.990662 
	C342.666656,529.007568 359.833344,529.007690 377.000000,528.988892 
	C378.836761,528.986877 380.673370,528.830750 382.750000,528.735046 
	C382.750000,506.666656 382.750000,484.833344 382.750000,462.500000 
	C380.190125,462.500000 377.845062,462.500000 375.500000,462.500000 
	C352.833344,462.500000 330.165894,462.595123 307.500732,462.410828 
	C303.501556,462.378326 302.379486,463.501709 302.410950,467.500702 
	C302.593262,490.665924 302.497986,513.833313 302.504150,537.000000 
	C302.504608,538.699341 302.227631,540.449158 303.250000,542.000000 
"/>
<path fill="none" opacity="1.000000" stroke="#000000" stroke-linecap="round" stroke-linejoin="round" stroke-width="4.000000"
	d="
M425.500000,438.500000 
	C432.032990,436.382843 436.473450,431.094025 441.845398,427.282135 
	C444.474609,425.416504 446.739990,425.009216 449.500000,425.007141 
	C467.833344,424.993347 486.166656,425.000000 504.500000,425.000000 
	C506.000763,425.000000 507.501526,425.000000 509.250000,425.000000 
	C509.250000,401.666656 509.250000,378.833344 509.250000,355.750000 
	C481.000000,355.750000 453.000000,355.750000 424.500000,355.750000 
	C424.500000,357.655945 424.500000,359.327972 424.500000,361.000000 
	C424.500000,385.000000 424.500000,409.000000 424.500000,433.000000 
	C424.500000,435.833344 424.500000,438.666656 424.500000,441.500000 
"/>
<path fill="none" opacity="1.000000" stroke="#000000" stroke-linecap="round" stroke-linejoin="round" stroke-width="3.000000"
	d="
M629.000000,87.000000 
	C631.166687,90.500000 633.934021,93.782921 635.302979,97.571198 
	C636.330688,100.415169 637.762329,100.523773 640.000061,100.514542 
	C648.666626,100.478775 657.333374,100.480415 666.000000,100.505630 
	C674.314453,100.529823 679.471924,105.692009 679.495422,114.000015 
	C679.517090,121.666618 679.199036,129.348862 679.593506,136.995178 
	C679.919861,143.321030 674.105652,150.029938 666.999939,150.017426 
	C641.666748,149.972855 616.332275,150.128296 591.000549,149.927780 
	C582.561401,149.860977 577.877563,144.534439 577.564270,136.497498 
	C577.265808,128.842453 577.051758,121.133163 577.621582,113.509087 
	C578.235779,105.291229 582.161316,101.086464 591.005615,100.602791 
	C599.646484,100.130241 608.333557,100.529594 616.999756,100.464607 
	C618.154114,100.455948 619.783264,101.240784 620.443848,99.970802 
	C623.126831,94.813095 627.382874,90.466438 628.500000,84.500000 
"/>
<path fill="none" opacity="1.000000" stroke="#000000" stroke-linecap="round" stroke-linejoin="round" stroke-width="4.000000"
	d="
M129.500000,330.000000 
	C131.271820,330.843353 133.161316,330.485199 135.000000,330.486176 
	C170.333328,330.504883 205.666672,330.500000 241.500000,330.500000 
	C241.500000,319.679474 241.500000,308.843597 241.500000,297.750000 
	C207.334961,297.750000 173.167480,297.750000 138.548660,297.750000 
	C137.341370,303.257599 138.039627,309.166992 138.090485,314.999207 
	C138.124908,318.945587 137.570602,322.327484 133.986053,324.476746 
	C131.378113,326.040436 129.734467,328.573456 127.500000,330.500000 
"/>
<path fill="none" opacity="1.000000" stroke="#000000" stroke-linecap="round" stroke-linejoin="round" stroke-width="3.000000"
	d="
M207.500000,166.000000 
	C213.000000,163.333344 218.524368,160.715088 223.983536,157.967270 
	C225.417358,157.245544 226.280273,158.052353 227.530350,158.386459 
	C243.607208,162.683334 259.307007,162.098877 273.975677,153.458710 
	C285.314514,146.779892 292.871948,137.311996 292.395844,123.503593 
	C291.995941,111.904404 285.148346,103.788101 275.984100,97.523277 
	C256.974670,84.528175 222.428894,85.194817 205.535110,106.028473 
	C196.364868,117.337372 195.146103,131.319580 205.797104,143.745331 
	C210.070755,148.731079 210.407318,152.585999 209.111176,158.026489 
	C208.634109,160.029007 206.764252,162.333328 209.000000,164.500000 
"/>
<path fill="none" opacity="1.000000" stroke="#000000" stroke-linecap="round" stroke-linejoin="round" stroke-width="3.000000"
	d="
M24.500000,158.500000 
	C24.638098,157.588577 24.021708,156.399658 25.498674,155.995163 
	C31.126677,154.453796 35.937447,151.135788 40.902409,148.327469 
	C43.982662,146.585175 46.628067,146.003479 50.007462,146.442596 
	C62.655483,148.086060 75.327103,149.556931 88.006104,150.944199 
	C90.129738,151.176544 92.392006,151.429367 94.727898,150.413254 
	C96.862625,128.533524 99.007805,106.546700 101.244156,83.625366 
	C70.426720,86.558105 40.428738,89.412849 10.293985,92.280617 
	C12.429784,107.842850 14.760245,122.640411 16.322548,137.518631 
	C16.799953,142.065094 18.307032,143.581070 22.500341,143.554993 
	C24.166426,143.544617 25.836332,144.148972 27.376829,144.448639 
	C28.218157,148.332779 24.301794,151.533585 26.000000,155.500000 
"/>
<path fill="none" opacity="1.000000" stroke="#000000" stroke-linecap="round" stroke-linejoin="round" stroke-width="4.000000"
	d="
M344.999969,259.500000 
	C345.275055,256.992462 345.550140,254.484924 345.877594,251.500000 
	C353.993042,251.500000 362.006958,251.500000 370.250000,251.500000 
	C370.250000,238.000000 370.250000,225.000000 370.250000,211.750000 
	C347.002411,211.750000 324.001221,211.750000 300.500000,211.750000 
	C300.500000,224.656113 300.500000,237.824890 300.500000,251.500000 
	C309.994141,251.500000 319.497467,251.548447 328.999756,251.469330 
	C331.711975,251.446747 333.947296,251.892944 336.067566,253.929642 
	C338.963531,256.711456 342.333344,259.000000 345.500000,261.500000 
"/>
<path fill="none" opacity="1.000000" stroke="#000000" stroke-linecap="round" stroke-linejoin="round" stroke-width="3.000000"
	d="
M234.999985,446.500000 
	C235.333328,445.666656 235.432220,444.559723 236.036179,444.042236 
	C242.145432,438.808228 247.621033,432.952179 252.988907,426.990021 
	C255.050964,424.699615 257.205017,424.069702 260.513184,424.336334 
	C271.979004,425.260498 283.503143,425.437439 294.999237,426.015350 
	C310.335693,426.786438 325.669006,427.626678 340.998169,428.531067 
	C344.398193,428.731628 345.534637,427.469543 346.116211,424.019592 
	C348.680634,408.807587 351.685089,393.670074 354.492706,378.498657 
	C356.033508,370.172852 357.433319,361.820496 359.034637,353.506683 
	C359.627258,350.429932 359.250824,348.922882 355.499817,348.933411 
	C316.833466,349.041901 278.166595,349.032013 239.500122,348.944672 
	C236.074585,348.936920 234.932068,350.074188 234.943878,353.500183 
	C235.042648,382.166504 234.997253,410.833344 235.008286,439.500000 
	C235.008835,440.900452 234.667694,442.416412 236.000000,443.500000 
"/>
<path fill="none" opacity="1.000000" stroke="#000000" stroke-linecap="round" stroke-linejoin="round" stroke-width="3.000000"
	d="
M498.000000,271.500000 
	C498.666656,271.833313 499.339172,272.468170 499.999146,272.455444 
	C512.998474,272.204529 526.069458,273.573975 538.984863,271.884430 
	C553.580078,269.975128 563.441528,261.237946 567.841431,247.449402 
	C572.021973,234.348358 569.254639,222.373032 559.574341,211.931091 
	C548.127869,199.584030 530.874451,197.931519 517.552246,204.604294 
	C503.239990,211.772949 495.630920,226.547424 498.564819,243.488770 
	C499.870819,251.029999 503.872681,257.376251 509.545380,263.522858 
	C503.739471,266.013519 499.549500,270.773743 493.500000,272.500000 
"/>
<path fill="none" opacity="1.000000" stroke="#000000" stroke-linecap="round" stroke-linejoin="round" stroke-width="3.000000"
	d="
M419.000000,657.500000 
	C420.441254,658.960388 422.286530,658.481873 424.000031,658.486511 
	C434.166626,658.513916 444.347565,658.155579 454.496918,658.574402 
	C473.407654,659.354858 490.774963,642.800903 490.707458,622.499329 
	C490.647675,604.533264 474.944244,586.806274 454.999817,586.977417 
	C440.073090,587.105530 429.109924,594.121460 422.660156,607.079712 
	C416.019592,620.421265 418.123047,633.535828 427.015533,645.488464 
	C428.010040,646.825195 429.672607,647.662231 430.100586,649.950806 
	C424.456116,652.590454 419.786865,657.200012 413.500000,659.000000 
"/>
<path fill="none" opacity="1.000000" stroke="#000000" stroke-linecap="round" stroke-linejoin="round" stroke-width="3.000000"
	d="
M2.000000,294.500000 
	C5.419989,301.478638 10.064138,307.672546 14.499372,314.545288 
	C18.989960,309.692963 21.709856,304.125092 24.902813,298.940155 
	C26.814178,295.836273 28.912889,294.817810 32.502308,294.906097 
	C43.162529,295.168274 53.833344,295.010071 64.499992,294.996002 
	C70.235229,294.988434 71.331543,294.226288 71.974838,288.996918 
	C74.700829,266.837555 77.352448,244.668945 79.981918,222.497849 
	C80.440880,218.627991 79.135674,217.505371 74.500000,217.503784 
	C50.500000,217.495621 26.500000,217.500000 2.500000,217.500000 
"/>
<path fill="none" opacity="1.000000" stroke="#000000" stroke-linecap="round" stroke-linejoin="round" stroke-width="3.000000"
	d="
M618.499939,740.500000 
	C619.166626,733.833313 619.748108,727.156738 620.527222,720.503174 
	C621.136658,715.299194 620.195862,714.011780 615.000000,714.009460 
	C575.333313,713.992188 535.666687,713.992798 496.000000,714.010010 
	C491.492920,714.011963 489.916809,715.956665 490.495911,720.500549 
	C491.345245,727.165161 492.166656,733.833313 493.000000,740.500000 
"/>
<path fill="none" opacity="1.000000" stroke="#000000" stroke-linecap="round" stroke-linejoin="round" stroke-width="3.000000"
	d="
M740.500000,217.500000 
	C725.333313,217.500000 710.166687,217.492645 695.000000,217.504181 
	C689.987366,217.507996 688.931885,218.548416 689.523621,223.497177 
	C692.135559,245.337051 694.799438,267.170898 697.525085,288.996857 
	C698.165161,294.122528 699.322205,294.991211 704.500000,294.996277 
	C716.500000,295.007996 728.500000,295.000000 740.500000,295.000000 
"/>
<path fill="none" opacity="1.000000" stroke="#000000" stroke-linecap="round" stroke-linejoin="round" stroke-width="3.000000"
	d="
M515.500000,415.000000 
	C524.003296,415.000000 532.506531,415.000000 541.500000,415.000000 
	C541.500000,405.506165 541.677124,396.497742 541.406677,387.502808 
	C541.308289,384.229462 542.237488,382.084686 544.990295,380.483368 
	C548.923096,378.195648 552.791748,375.796967 556.254211,372.494751 
	C552.659180,369.000336 548.493408,366.593414 544.464417,364.056488 
	C541.860657,362.416962 541.381348,360.346252 541.436951,357.498779 
	C541.609497,348.668793 541.500000,339.833344 541.500000,330.500000 
	C513.338257,330.500000 485.170624,330.500000 456.388916,330.500000 
	C456.847229,336.833344 455.882233,343.166656 457.000000,349.500000 
"/>
<path fill="none" opacity="1.000000" stroke="#000000" stroke-linecap="round" stroke-linejoin="round" stroke-width="4.000000"
	d="
M323.000000,257.500000 
	C323.000000,271.166656 323.146576,284.835907 322.909058,298.498413 
	C322.839447,302.502747 324.001617,303.621307 328.000702,303.589142 
	C350.832581,303.405518 373.666656,303.500000 397.000000,303.500000 
	C397.000000,309.157043 397.000000,314.828522 397.000000,320.500000 
"/>
<path fill="none" opacity="1.000000" stroke="#000000" stroke-linecap="round" stroke-linejoin="round" stroke-width="3.000000"
	d="
M407.500000,2.000000 
	C414.590393,7.746088 415.393616,15.720008 413.301880,23.446365 
	C410.016174,35.582973 401.750183,43.532372 385.000000,43.506252 
	C367.166687,43.478447 349.333252,43.528015 331.500092,43.470139 
	C328.788818,43.461342 326.582977,43.936558 324.432495,45.927052 
	C320.600098,49.474300 316.354858,52.575542 312.119781,55.994488 
	C310.560547,53.684353 310.758057,51.480114 311.071289,49.511341 
	C311.806458,44.890301 309.715973,42.790108 305.519806,41.438492 
	C291.634827,36.966007 284.603180,21.378592 290.458984,7.482715 
	C291.552765,4.887092 292.636993,2.503063 295.500000,1.500000 
"/>
<path fill="none" opacity="1.000000" stroke="#000000" stroke-linecap="round" stroke-linejoin="round" stroke-width="3.000000"
	d="
M740.500000,484.000000 
	C732.703064,486.104065 728.261841,492.682404 722.606323,497.805939 
	C719.265137,494.743134 716.129089,491.875336 713.000732,488.999237 
	C704.332458,481.030151 688.438904,480.133118 678.500549,491.000519 
	C669.667175,500.659729 669.521057,515.723511 679.007874,525.492310 
	C682.291687,528.873718 685.635254,532.199097 689.018799,535.480652 
	C690.058411,536.488953 691.160339,537.634583 690.447266,538.971863 
	C687.015320,545.408569 686.597168,552.527344 685.492065,559.498718 
	C685.384888,560.174866 685.166626,560.833313 685.000000,561.500000 
"/>
<path fill="none" opacity="1.000000" stroke="#000000" stroke-linecap="round" stroke-linejoin="round" stroke-width="4.000000"
	d="
M358.000000,534.500000 
	C356.940948,539.637878 357.712891,544.834595 357.515747,550.000610 
	C357.389404,553.311279 359.880524,552.984375 362.000031,552.990234 
	C370.499969,553.013794 379.000000,553.000000 387.500000,553.000000 
	C396.500000,553.000000 405.504517,553.162292 414.497559,552.911865 
	C417.640076,552.824341 420.134583,553.763672 422.493164,555.509277 
	C427.456329,559.182617 432.381317,562.907471 437.339813,566.624573 
	C438.776428,564.449768 438.494690,562.698608 438.495209,561.000000 
	C438.502319,537.833313 438.406738,514.665955 438.589081,491.500702 
	C438.620544,487.501709 437.501740,486.348724 433.498627,486.409271 
	C418.502045,486.635986 403.500000,486.500000 388.500000,486.500000 
"/>
<path fill="none" opacity="1.000000" stroke="#000000" stroke-linecap="round" stroke-linejoin="round" stroke-width="4.000000"
	d="
M691.000000,682.500000 
	C691.321899,676.659424 693.133240,671.125488 694.558411,665.250000 
	C699.339050,665.250000 704.178162,665.250000 709.250000,665.250000 
	C709.250000,645.336182 709.250000,625.668091 709.250000,605.000000 
	C697.518494,605.000000 685.509277,605.000000 673.500000,605.000000 
"/>
<path fill="none" opacity="1.000000" stroke="#000000" stroke-linecap="round" stroke-linejoin="round" stroke-width="3.000000"
	d="
M617.000000,155.500000 
	C617.000000,159.833328 616.963867,164.167038 617.007812,168.499924 
	C617.090271,176.637833 622.362061,181.934265 630.500061,181.987839 
	C638.833008,182.042694 647.167969,182.082596 655.499329,181.954742 
	C658.375916,181.910614 660.241821,182.437363 661.630249,185.439774 
	C663.249268,188.940933 664.984985,192.565582 668.023254,195.438873 
	C670.978760,192.801544 672.412415,189.327179 673.962708,185.982712 
	C675.406494,182.868103 677.494568,181.772079 681.003601,181.906448 
	C688.825439,182.205978 696.676941,181.748672 704.497253,182.067200 
	C713.172119,182.420547 719.447998,176.171692 719.062866,167.497208 
	C718.752686,160.510986 719.015259,153.499954 718.995850,146.500015 
	C718.975403,139.103241 714.315552,133.087585 706.990662,132.659164 
	C699.870361,132.242691 692.643921,131.855911 685.500000,133.000000 
"/>
<path fill="none" opacity="1.000000" stroke="#000000" stroke-linecap="round" stroke-linejoin="round" stroke-width="3.000000"
	d="
M408.500000,740.500000 
	C403.831818,738.302673 400.743042,733.512146 395.021057,732.824768 
	C393.056183,732.588684 391.047852,732.006836 389.000000,732.006042 
	C364.833344,731.996643 340.665527,732.132324 316.500610,731.926697 
	C308.278137,731.856750 301.122375,733.791931 295.549835,740.044434 
	C294.777435,740.911011 294.120850,740.150146 293.500000,740.500000 
"/>
<path fill="none" opacity="1.000000" stroke="#000000" stroke-linecap="round" stroke-linejoin="round" stroke-width="3.000000"
	d="
M103.500000,119.000008 
	C116.333336,120.333344 129.164246,121.691040 142.002975,122.970116 
	C143.665390,123.135742 145.305038,123.084892 146.636215,124.661903 
	C144.603683,139.513855 142.329941,154.482193 140.653992,169.517166 
	C140.228149,173.337418 138.922668,174.463303 135.501236,174.549149 
	C133.492355,174.599548 131.495743,175.139511 129.541946,175.451553 
	C129.094467,179.290146 132.498642,182.560791 131.000000,186.500000 
"/>
<path fill="none" opacity="1.000000" stroke="#000000" stroke-linecap="round" stroke-linejoin="round" stroke-width="3.000000"
	d="
M618.000061,1.500004 
	C616.166687,17.000004 614.247375,32.490677 612.564636,48.007008 
	C612.177246,51.579453 610.061157,51.522678 607.499939,51.515114 
	C595.833374,51.480652 584.165405,51.593048 572.500977,51.431549 
	C569.744385,51.393383 567.896301,52.087475 566.470642,54.482533 
	C563.136902,60.083351 559.648987,65.592361 556.017090,71.472687 
	C551.533630,66.676476 548.775940,61.135033 545.589294,55.945156 
	C543.470764,52.494858 541.010986,51.297207 536.997437,51.403843 
	C526.338257,51.687038 515.660095,51.284172 505.003357,51.609573 
	C500.920532,51.734241 498.960602,50.239277 498.521667,46.497456 
	C496.802002,31.837011 495.166656,17.166666 493.500000,2.500000 
"/>
<path fill="none" opacity="1.000000" stroke="#000000" stroke-linecap="round" stroke-linejoin="round" stroke-width="3.000000"
	d="
M430.000000,740.500000 
	C434.759155,725.738831 428.195068,712.502258 413.482666,707.551514 
	C410.329498,706.490601 408.924622,704.922241 409.435425,701.490417 
	C409.775665,699.204529 409.500000,696.827026 409.500000,693.988953 
	C403.790436,695.064697 400.570282,699.066650 397.142578,702.158081 
	C393.572662,705.377930 389.945831,706.095459 385.499512,706.057617 
	C368.667389,705.914368 351.824615,706.334656 335.002716,705.896179 
	C321.087341,705.533386 310.439240,712.881165 306.500000,726.000000 
"/>
<path fill="none" opacity="1.000000" stroke="#000000" stroke-linecap="round" stroke-linejoin="round" stroke-width="3.000000"
	d="
M58.500000,154.000000 
	C61.648842,156.249298 59.787151,159.711182 60.331501,162.532516 
	C61.403538,168.088806 61.438171,173.840088 62.055962,179.493881 
	C62.169598,180.533875 62.269676,181.865158 63.775631,182.527679 
	C78.171104,180.872406 92.829651,179.131500 107.505196,177.548187 
	C110.293442,177.247375 112.827293,178.090561 115.597672,179.270721 
	C121.175911,181.646988 125.718063,186.188019 131.985352,187.100601 
	C132.430588,187.165436 132.666656,188.666672 133.000000,189.500000 
"/>
<path fill="none" opacity="1.000000" stroke="#000000" stroke-linecap="round" stroke-linejoin="round" stroke-width="4.000000"
	d="
M615.500000,645.500000 
	C616.809143,651.949951 615.309875,658.543945 616.381958,665.500000 
	C622.824585,665.500000 629.162292,665.500000 635.500000,665.500000 
	C648.000000,665.500000 660.502197,665.627258 672.998413,665.408936 
	C676.055786,665.355591 678.179871,666.225891 680.011047,668.491089 
	C683.205627,672.442566 686.051575,676.701538 690.000000,680.000000 
"/>
<path fill="none" opacity="1.000000" stroke="#000000" stroke-linecap="round" stroke-linejoin="round" stroke-width="3.000000"
	d="
M376.500000,242.000000 
	C392.833344,242.000000 409.166656,241.997711 425.500000,242.001190 
	C431.519623,242.002472 431.196350,242.002380 431.079590,248.001556 
	C430.924042,255.995285 431.406067,263.999329 431.480682,272.000183 
	C431.564636,280.999390 431.355194,290.003479 431.572113,298.998260 
	C431.657410,302.534576 430.526917,304.017242 426.998596,303.509735 
	C426.508728,303.439240 425.992310,303.557373 425.501160,303.491455 
	C416.879456,302.334045 409.610474,304.181549 404.389496,311.925476 
	C402.877869,314.167572 400.974823,316.621765 398.000000,317.500000 
"/>
<path fill="none" opacity="1.000000" stroke="#000000" stroke-linecap="round" stroke-linejoin="round" stroke-width="3.000000"
	d="
M161.000000,511.000000 
	C163.653931,525.657410 173.466446,533.943665 186.524857,538.934998 
	C199.134628,543.754822 212.079102,544.010864 224.976730,539.926514 
	C227.099091,539.254395 228.889954,539.672241 230.464294,540.563110 
	C235.618698,543.479614 240.907227,546.053467 246.500000,548.000000 
"/>
<path fill="none" opacity="1.000000" stroke="#000000" stroke-linecap="round" stroke-linejoin="round" stroke-width="3.000000"
	d="
M551.500000,691.500000 
	C548.572266,691.569336 546.237366,690.853027 543.869202,688.639954 
	C541.267151,686.208313 537.647644,684.865295 534.216980,682.902344 
	C537.682373,677.939209 541.661438,673.424133 543.565857,667.521240 
	C547.744934,654.568054 545.736816,642.741943 536.918518,632.570679 
	C527.445374,621.644165 515.220703,617.880981 501.000122,621.000549 
	C499.499237,621.329773 498.000000,621.666626 496.500000,621.999939 
"/>
<path fill="none" opacity="1.000000" stroke="#000000" stroke-linecap="round" stroke-linejoin="round" stroke-width="3.000000"
	d="
M630.500000,305.500000 
	C627.588440,305.528900 625.235352,304.881348 622.867310,302.640228 
	C620.215271,300.130402 616.540222,298.701660 613.018555,296.630951 
	C617.289612,291.004822 621.147644,285.758240 623.159424,279.047791 
	C629.806030,256.877136 611.854370,233.993637 590.000305,233.918335 
	C584.994263,233.901093 580.260559,234.805664 575.500000,236.000000 
"/>
<path fill="none" opacity="1.000000" stroke="#000000" stroke-linecap="round" stroke-linejoin="round" stroke-width="3.000000"
	d="
M326.000000,194.500000 
	C324.833344,189.000000 323.713440,183.489441 322.474670,178.005722 
	C322.040375,176.083374 323.488220,175.496231 324.490021,174.490082 
	C332.837433,166.106491 336.625885,156.228348 333.438507,144.516739 
	C330.961212,135.414322 324.834778,128.859695 316.963074,124.060539 
	C311.005859,120.428566 304.590942,117.687141 297.500000,117.000000 
"/>
<path fill="none" opacity="1.000000" stroke="#000000" stroke-linecap="round" stroke-linejoin="round" stroke-width="4.000000"
	d="
M740.500000,696.500000 
	C728.333313,696.500000 716.157349,696.794434 704.002869,696.408875 
	C693.888062,696.087952 684.981506,704.888489 685.423767,715.003357 
	C685.794739,723.487122 685.500000,732.000000 685.500000,740.500000 
"/>
<path fill="none" opacity="1.000000" stroke="#000000" stroke-linecap="round" stroke-linejoin="round" stroke-width="3.000000"
	d="
M219.000000,472.000000 
	C234.365189,474.984314 246.581726,481.944763 252.557602,497.477844 
	C256.904022,508.775330 253.580521,518.501831 246.302063,526.826965 
	C242.882736,530.738037 241.909348,533.922791 243.455185,538.515076 
	C244.315216,541.070007 245.127747,543.752441 244.000000,546.500000 
"/>
<path fill="none" opacity="1.000000" stroke="#000000" stroke-linecap="round" stroke-linejoin="round" stroke-width="3.000000"
	d="
M1.500000,550.500000 
	C8.197051,541.570801 16.875069,534.539978 24.543594,526.541809 
	C27.661827,523.289551 30.196590,519.757080 31.466862,515.490112 
	C37.033508,496.791260 21.197111,479.772064 2.500000,483.500000 
"/>
<path fill="none" opacity="1.000000" stroke="#000000" stroke-linecap="round" stroke-linejoin="round" stroke-width="3.000000"
	d="
M553.000000,273.500000 
	C555.194885,292.504486 571.660828,306.455078 591.003357,305.573242 
	C600.317322,305.148621 609.666748,305.514984 618.999939,305.486450 
	C620.713501,305.481201 622.558716,305.960388 624.000000,304.500000 
"/>
<path fill="none" opacity="1.000000" stroke="#000000" stroke-linecap="round" stroke-linejoin="round" stroke-width="3.000000"
	d="
M474.000000,659.500000 
	C476.688812,678.869080 491.088593,690.213318 505.512238,691.343750 
	C515.782471,692.148682 526.169312,691.627075 536.498169,691.412415 
	C539.147522,691.357422 541.930664,692.724304 544.500000,691.000000 
"/>
<path fill="none" opacity="1.000000" stroke="#000000" stroke-linecap="round" stroke-linejoin="round" stroke-width="3.000000"
	d="
M230.000000,740.500000 
	C232.580078,730.210876 229.672501,723.980347 219.567291,718.039551 
	C221.422119,710.716858 219.685440,704.522278 214.000290,699.499695 
	C208.492508,694.633850 201.886566,693.988098 193.500000,697.500000 
	C183.108200,687.678955 173.423203,688.174805 164.000000,697.000000 
	C151.807892,687.152954 137.470306,692.459412 133.501404,707.504883 
	C128.426117,707.408081 123.862846,708.039001 119.389420,711.350647 
	C111.783501,716.981262 110.689934,730.050598 117.094025,736.405273 
	C118.428459,737.729492 118.655891,740.612915 121.500000,740.250000 
"/>
<path fill="none" opacity="1.000000" stroke="#000000" stroke-linecap="round" stroke-linejoin="round" stroke-width="3.000000"
	d="
M442.500000,79.500000 
	C439.070587,77.981400 435.932861,75.859589 432.004639,75.454956 
	C423.032867,74.530800 414.378174,80.859856 412.499817,90.499710 
	C403.744324,90.167969 396.750000,93.167130 393.043884,101.519470 
	C389.291595,109.975784 392.519043,116.894356 399.007050,123.153038 
	C394.354004,127.730988 390.996338,132.944473 391.578918,139.492981 
	C392.194031,146.406723 396.118164,151.446823 402.139435,154.710999 
	C397.557892,164.207596 398.422211,169.825729 405.000000,174.499985 
	C411.482422,179.106476 417.358368,177.637497 425.227600,169.257614 
	C434.569153,176.516708 443.541199,175.473038 451.805908,167.317352 
	C461.731506,176.658356 474.843628,176.082169 483.000000,163.000000 
	C494.270721,165.046417 499.144623,161.590057 503.948730,154.962845 
	C508.134460,149.188705 507.048370,141.382706 501.350250,133.287262 
	C506.863068,129.307343 510.055115,124.217674 509.576965,116.994904 
	C509.066223,109.279800 504.429565,104.777580 498.478943,101.082481 
	C502.081696,86.974030 489.288544,74.858360 475.010559,79.532249 
	C473.266449,80.103195 471.935425,81.128738 469.954956,79.556755 
	C459.620605,71.353966 453.938477,71.418488 443.502289,79.502945 
	C443.317444,79.646149 443.166656,79.833328 443.000000,79.999992 
"/>
<path fill="none" opacity="1.000000" stroke="#000000" stroke-linecap="round" stroke-linejoin="round" stroke-width="3.000000"
	d="
M545.000000,456.500000 
	C541.387573,455.017487 538.245728,452.687927 534.008484,452.382507 
	C525.504517,451.769501 518.307556,456.904938 516.039917,464.511902 
	C515.466431,466.435638 514.904053,467.588287 512.499329,467.563873 
	C504.297791,467.480621 498.634796,471.588715 495.542725,479.017792 
	C492.311310,486.781586 494.718567,493.361877 500.499451,499.000580 
	C500.836884,499.329681 501.166687,499.666656 501.751648,500.251617 
	C496.960754,504.377441 493.593933,509.381134 494.038849,515.997375 
	C494.516907,523.106262 498.585205,527.969177 504.500183,531.499878 
	C500.167542,541.071960 501.355682,548.841553 508.568634,552.359253 
	C514.007690,555.011841 521.155090,555.472778 527.318359,546.011230 
	C536.698792,553.149963 545.876099,552.629761 554.331177,544.352539 
	C566.109070,554.642517 578.116150,551.790100 585.500000,540.000000 
	C595.709106,541.681213 601.769348,539.228210 606.500061,531.500061 
	C610.418030,525.099426 609.746704,518.218506 604.358948,510.805939 
	C605.676086,507.585052 609.206421,505.998779 610.609802,502.544617 
	C614.099670,493.954590 612.322998,486.389008 604.458801,480.555573 
	C602.260925,478.925232 601.100830,477.332916 601.463379,474.495331 
	C603.050598,462.074158 589.194397,451.136841 577.010864,457.022522 
	C575.463135,457.770233 574.370300,457.638092 572.970032,456.538177 
	C562.455933,448.279755 556.768738,448.312408 545.992432,456.490021 
	C545.886658,456.570251 545.666687,456.500000 545.500000,456.500000 
"/>
<path fill="none" opacity="1.000000" stroke="#000000" stroke-linecap="round" stroke-linejoin="round" stroke-width="4.000000"
	d="
M39.500000,2.500000 
	C39.500000,12.000000 39.471397,21.500107 39.507011,30.999973 
	C39.554981,43.796021 31.370180,50.564075 19.999973,50.505291 
	C14.166796,50.475132 8.333333,50.500000 2.500000,50.500000 
"/>
<path fill="none" opacity="1.000000" stroke="#000000" stroke-linecap="round" stroke-linejoin="round" stroke-width="3.000000"
	d="
M52.500000,576.000000 
	C54.944324,572.833313 52.791111,569.580933 52.341255,566.523376 
	C51.861015,563.259338 50.130085,560.179321 48.892715,556.879211 
	C53.597382,550.978088 59.963493,546.592346 64.074532,540.046814 
	C69.312195,531.707458 68.885231,521.530518 64.456924,514.527222 
	C58.334400,504.844574 49.040047,500.612518 39.000000,502.500000 
"/>
<path fill="none" opacity="1.000000" stroke="#000000" stroke-linecap="round" stroke-linejoin="round" stroke-width="4.000000"
	d="
M685.500000,2.500000 
	C685.500000,8.000000 685.500000,13.500000 685.500000,19.000000 
	C685.500000,23.500000 685.861694,28.036232 685.415344,32.491516 
	C684.743347,39.199421 677.795471,41.194538 674.481079,45.986904 
	C673.746460,47.049118 672.772095,47.945530 671.084106,49.846069 
	C683.258911,51.187485 694.657471,50.297207 706.000549,50.462929 
	C717.498108,50.630905 729.000000,50.500000 740.500000,50.500000 
"/>
<path fill="none" opacity="1.000000" stroke="#000000" stroke-linecap="round" stroke-linejoin="round" stroke-width="3.000000"
	d="
M245.000000,166.500000 
	C251.174606,177.905365 261.452911,183.599152 273.514679,186.437561 
	C283.856628,188.871246 294.238068,189.090851 304.535492,185.604858 
	C306.317566,185.001572 308.320404,185.157364 310.610901,186.272141 
	C315.276642,188.542969 319.570190,191.941498 325.000000,192.500000 
"/>
<path fill="none" opacity="1.000000" stroke="#000000" stroke-linecap="round" stroke-linejoin="round" stroke-width="4.000000"
	d="
M405.500000,272.500000 
	C387.166656,272.500000 368.833344,272.500000 350.500000,272.500000 
"/>
<path fill="none" opacity="1.000000" stroke="#000000" stroke-linecap="round" stroke-linejoin="round" stroke-width="4.000000"
	d="
M163.500000,259.000000 
	C165.103210,259.801270 166.825531,259.486237 168.500015,259.488251 
	C184.833313,259.507782 201.166672,259.500000 217.500000,259.500000 
"/>
<path fill="none" opacity="1.000000" stroke="#000000" stroke-linecap="round" stroke-linejoin="round" stroke-width="3.000000"
	d="
M343.000000,401.500000 
	C341.856201,407.837372 340.712433,414.174744 339.503235,420.874695 
	C328.490173,420.415955 317.495087,419.957977 306.500000,419.499969 
"/>
<path fill="none" opacity="1.000000" stroke="#000000" stroke-linecap="round" stroke-linejoin="round" stroke-width="3.000000"
	d="
M715.500000,704.000000 
	C711.333313,704.000000 707.166443,703.970642 703.000061,704.006775 
	C696.668640,704.061829 693.042725,707.668640 693.009766,714.000061 
	C692.968994,721.833130 693.000000,729.666687 693.000000,737.500000 
"/>
<path fill="none" opacity="1.000000" stroke="#000000" stroke-linecap="round" stroke-linejoin="round" stroke-width="3.000000"
	d="
M645.500000,607.000000 
	C628.833313,607.000000 612.166687,607.000000 595.500000,607.000000 
"/>
<path fill="none" opacity="1.000000" stroke="#000000" stroke-linecap="round" stroke-linejoin="round" stroke-width="4.000000"
	d="
M52.000000,697.500000 
	C50.387486,695.952148 48.366322,696.525024 46.499950,696.520325 
	C31.833376,696.483582 17.166666,696.500000 2.500000,696.500000 
"/>
<path fill="none" opacity="1.000000" stroke="#000000" stroke-linecap="round" stroke-linejoin="round" stroke-width="3.000000"
	d="
M266.500000,595.000000 
	C261.165710,595.000000 255.831451,595.000000 250.053268,595.000000 
	C251.240219,606.192139 252.370117,616.846069 253.500000,627.500000 
"/>
<path fill="none" opacity="1.000000" stroke="#000000" stroke-linecap="round" stroke-linejoin="round" stroke-width="3.000000"
	d="
M32.000000,20.500000 
	C32.000000,24.666666 32.029324,28.833588 31.993160,32.999939 
	C31.938210,39.331345 28.331381,42.951389 21.999943,42.990986 
	C15.500197,43.031635 9.000000,43.000000 2.500000,43.000000 
"/>
<path fill="none" opacity="1.000000" stroke="#000000" stroke-linecap="round" stroke-linejoin="round" stroke-width="3.000000"
	d="
M177.500000,238.000000 
	C166.830734,238.000000 156.161453,238.000000 145.597351,238.000000 
	C144.516052,243.137482 145.211868,247.834946 145.000000,252.500000 
"/>
<path fill="none" opacity="1.000000" stroke="#000000" stroke-linecap="round" stroke-linejoin="round" stroke-width="4.000000"
	d="
M712.500000,224.500000 
	C707.660950,224.500000 702.821838,224.500000 697.098206,224.500000 
	C698.446472,235.557953 699.723267,246.028976 701.000000,256.500000 
"/>
<path fill="none" opacity="1.000000" stroke="#000000" stroke-linecap="round" stroke-linejoin="round" stroke-width="4.000000"
	d="
M702.500000,644.500000 
	C702.500000,633.833313 702.500000,623.166687 702.500000,612.499634 
	C698.198730,611.499451 693.831360,612.217529 689.500000,612.000000 
"/>
<path fill="none" opacity="1.000000" stroke="#000000" stroke-linecap="round" stroke-linejoin="round" stroke-width="3.000000"
	d="
M67.000000,349.500000 
	C52.963333,352.286987 40.616871,357.895477 31.949694,369.963867 
	C30.028486,372.638977 28.862934,375.594116 27.500000,378.500000 
"/>
<path fill="none" opacity="1.000000" stroke="#000000" stroke-linecap="round" stroke-linejoin="round" stroke-width="3.000000"
	d="
M230.500000,2.000000 
	C227.446548,4.147806 226.131287,7.925162 222.827393,9.947154 
	C227.774826,17.473558 229.764771,25.067669 224.000198,33.000141 
	C218.906601,40.009312 212.005447,41.452652 203.954529,39.568897 
	C195.387161,52.548664 185.291473,54.014164 173.000000,44.000000 
	C162.920975,52.211636 158.196213,52.657368 146.174683,46.328735 
	C142.759781,49.594852 139.712387,53.746281 133.997818,53.571522 
	C131.096939,53.482807 128.311584,53.132381 126.032959,51.455227 
	C119.736221,46.820595 118.878876,40.758434 123.196182,31.583055 
	C115.945053,27.194139 111.683838,20.898174 113.058807,12.009097 
	C113.768982,7.417860 115.440170,3.171548 120.500000,1.500000 
"/>
<path fill="none" opacity="1.000000" stroke="#000000" stroke-linecap="round" stroke-linejoin="round" stroke-width="3.000000"
	d="
M351.000000,284.000000 
	C365.166656,284.000000 379.333344,284.000000 393.500000,284.000000 
"/>
<path fill="none" opacity="1.000000" stroke="#000000" stroke-linecap="round" stroke-linejoin="round" stroke-width="4.000000"
	d="
M55.499996,696.500000 
	C54.499996,696.666626 52.840694,696.529907 52.602600,697.047241 
	C50.366741,701.905640 46.058212,704.904907 42.411030,708.407349 
	C40.055901,710.669067 39.394516,712.948975 39.449699,716.000916 
	C39.597321,724.164917 39.500000,732.333313 39.500000,740.500000 
"/>
<path fill="none" opacity="1.000000" stroke="#000000" stroke-linecap="round" stroke-linejoin="round" stroke-width="3.000000"
	d="
M378.500000,713.000000 
	C364.500000,713.000000 350.500000,713.000000 336.500000,713.000000 
"/>
<path fill="none" opacity="1.000000" stroke="#000000" stroke-linecap="round" stroke-linejoin="round" stroke-width="4.000000"
	d="
M519.500000,337.500000 
	C505.500000,337.500000 491.500000,337.500000 477.500000,337.500000 
"/>
<path fill="none" opacity="1.000000" stroke="#000000" stroke-linecap="round" stroke-linejoin="round" stroke-width="4.000000"
	d="
M363.500000,261.000000 
	C367.967010,262.057343 372.501495,261.408356 377.000458,261.464142 
	C386.498993,261.581970 396.000000,261.500000 405.500000,261.500000 
"/>
<path fill="none" opacity="1.000000" stroke="#000000" stroke-linecap="round" stroke-linejoin="round" stroke-width="3.000000"
	d="
M203.500000,270.000000 
	C190.166672,270.000000 176.833328,270.000000 163.500000,270.000000 
"/>
<path fill="none" opacity="1.000000" stroke="#000000" stroke-linecap="round" stroke-linejoin="round" stroke-width="3.000000"
	d="
M445.500000,363.000000 
	C442.041748,361.956573 438.499420,362.671234 434.999084,362.521271 
	C431.689453,362.379486 432.016418,364.880493 432.009766,367.000031 
	C431.985229,374.833282 432.000000,382.666656 432.000000,390.500000 
"/>
<path fill="none" opacity="1.000000" stroke="#000000" stroke-linecap="round" stroke-linejoin="round" stroke-width="3.000000"
	d="
M651.000000,332.500000 
	C650.713196,334.426392 649.218445,333.933289 648.000061,334.000732 
	C642.857239,334.285400 637.837097,335.438934 633.026550,337.077850 
	C624.065369,340.130829 622.000000,343.714935 622.000000,354.500000 
"/>
<path fill="none" opacity="1.000000" stroke="#000000" stroke-linecap="round" stroke-linejoin="round" stroke-width="3.000000"
	d="
M591.500000,584.000000 
	C588.158325,584.000000 584.816650,584.000000 581.000000,584.000000 
	C581.000000,594.160950 581.000000,603.830444 581.000000,613.500000 
"/>
<path fill="none" opacity="1.000000" stroke="#000000" stroke-linecap="round" stroke-linejoin="round" stroke-width="4.000000"
	d="
M170.000000,640.500000 
	C170.166672,640.833313 170.484543,641.169617 170.478134,641.499573 
	C170.252960,653.097595 172.488159,651.440002 161.499969,651.493958 
	C154.833466,651.526672 148.166672,651.500000 141.500000,651.500000 
"/>
<path fill="none" opacity="1.000000" stroke="#000000" stroke-linecap="round" stroke-linejoin="round" stroke-width="4.000000"
	d="
M607.500000,26.500000 
	C607.617126,32.422913 606.336304,38.186054 605.631531,44.500000 
	C598.507935,44.500000 591.503967,44.500000 584.500000,44.500000 
"/>
<path fill="none" opacity="1.000000" stroke="#000000" stroke-linecap="round" stroke-linejoin="round" stroke-width="3.000000"
	d="
M324.000000,496.000000 
	C336.833344,496.000000 349.666656,496.000000 362.500000,496.000000 
"/>
<path fill="none" opacity="1.000000" stroke="#000000" stroke-linecap="round" stroke-linejoin="round" stroke-width="4.000000"
	d="
M67.000000,270.500000 
	C65.578682,276.080200 66.119530,281.948944 64.345993,287.500000 
	C57.500000,287.500000 50.500000,287.500000 43.500000,287.500000 
"/>
<path fill="none" opacity="1.000000" stroke="#000000" stroke-linecap="round" stroke-linejoin="round" stroke-width="4.000000"
	d="
M328.500000,469.500000 
	C322.223633,470.915710 315.776062,469.078796 309.500000,470.531769 
	C309.500000,476.833344 309.500000,483.166656 309.500000,489.500000 
"/>
<path fill="none" opacity="1.000000" stroke="#000000" stroke-linecap="round" stroke-linejoin="round" stroke-width="3.000000"
	d="
M360.000000,640.500000 
	C359.157013,646.165283 358.314056,651.830566 357.396057,658.000000 
	C350.507782,658.000000 343.503876,658.000000 336.500000,658.000000 
"/>
<path fill="none" opacity="1.000000" stroke="#000000" stroke-linecap="round" stroke-linejoin="round" stroke-width="3.000000"
	d="
M54.500000,579.500000 
	C50.744400,573.396362 44.777264,570.241455 38.151932,567.347839 
	C31.418631,574.081238 24.581285,580.918701 17.450117,588.049988 
	C12.190634,581.810791 5.348596,577.564087 1.500000,570.500000 
"/>
<path fill="none" opacity="1.000000" stroke="#000000" stroke-linecap="round" stroke-linejoin="round" stroke-width="4.000000"
	d="
M217.500000,248.500000 
	C205.166672,248.500000 192.833328,248.500000 180.500000,248.500000 
"/>
<path fill="none" opacity="1.000000" stroke="#000000" stroke-linecap="round" stroke-linejoin="round" stroke-width="3.000000"
	d="
M514.500000,721.000000 
	C509.366272,722.187561 504.158203,721.070984 498.512604,721.588562 
	C498.299652,727.928101 499.539459,734.203186 500.540344,740.493591 
	C500.548584,740.545288 501.166656,740.500000 501.500000,740.500000 
"/>
<path fill="none" opacity="1.000000" stroke="#000000" stroke-linecap="round" stroke-linejoin="round" stroke-width="3.000000"
	d="
M135.500000,153.500000 
	C136.500061,146.000015 137.500122,138.500015 138.560410,130.548279 
	C134.511429,128.373871 129.763000,129.699066 125.500000,128.500000 
"/>
<path fill="none" opacity="1.000000" stroke="#000000" stroke-linecap="round" stroke-linejoin="round" stroke-width="3.000000"
	d="
M740.500000,549.500000 
	C735.443176,556.776489 728.376404,562.043030 722.314453,568.816956 
	C715.084839,561.585999 708.414673,554.914490 701.890381,548.388977 
	C695.942078,550.097229 691.761658,554.044434 687.000000,557.000000 
"/>
<path fill="none" opacity="1.000000" stroke="#000000" stroke-linecap="round" stroke-linejoin="round" stroke-width="3.000000"
	d="
M253.500000,356.000000 
	C249.834198,356.185638 246.130615,355.540039 242.000000,356.646942 
	C242.000000,364.493073 242.000000,372.496552 242.000000,380.500000 
"/>
<path fill="none" opacity="1.000000" stroke="#000000" stroke-linecap="round" stroke-linejoin="round" stroke-width="4.000000"
	d="
M630.500000,618.500000 
	C618.833313,618.500000 607.166687,618.500000 595.500000,618.500000 
"/>
<path fill="none" opacity="1.000000" stroke="#000000" stroke-linecap="round" stroke-linejoin="round" stroke-width="4.000000"
	d="
M740.500000,3.500000 
	C729.166687,3.500000 717.833313,3.500000 706.500000,3.500000 
"/>
<path fill="none" opacity="1.000000" stroke="#000000" stroke-linecap="round" stroke-linejoin="round" stroke-width="3.000000"
	d="
M740.500000,14.000000 
	C729.166687,14.000000 717.833313,14.000000 706.500000,14.000000 
"/>
<path fill="none" opacity="1.000000" stroke="#000000" stroke-linecap="round" stroke-linejoin="round" stroke-width="4.000000"
	d="
M607.500000,108.000000 
	C602.028320,109.102234 596.492615,108.484062 591.001221,108.410736 
	C586.850586,108.355324 585.268799,110.394753 585.036438,114.002350 
	C584.854675,116.823975 585.000000,119.666664 585.000000,122.500000 
"/>
<path fill="none" opacity="1.000000" stroke="#000000" stroke-linecap="round" stroke-linejoin="round" stroke-width="4.000000"
	d="
M235.000000,310.500000 
	C234.782501,314.831390 235.500549,319.198730 234.500320,323.500000 
	C227.833328,323.500000 221.166672,323.500000 214.500000,323.500000 
"/>
<path fill="none" opacity="1.000000" stroke="#000000" stroke-linecap="round" stroke-linejoin="round" stroke-width="4.000000"
	d="
M135.500000,450.500000 
	C132.324554,450.500000 129.149124,450.500000 125.500000,450.500000 
	C125.500000,458.826233 125.500000,466.663116 125.500000,474.500000 
"/>
<path fill="none" opacity="1.000000" stroke="#000000" stroke-linecap="round" stroke-linejoin="round" stroke-width="3.000000"
	d="
M29.500000,97.500000 
	C25.989586,97.938797 22.479174,98.377586 18.429621,98.883774 
	C19.470398,106.211098 20.485199,113.355553 21.500000,120.500000 
"/>
<path fill="none" opacity="1.000000" stroke="#000000" stroke-linecap="round" stroke-linejoin="round" stroke-width="3.000000"
	d="
M128.000000,398.500000 
	C124.269722,409.361023 116.576950,416.765961 106.984177,422.473419 
	C105.635315,423.275940 104.250580,424.251740 102.500000,424.000000 
"/>
<path fill="none" opacity="1.000000" stroke="#000000" stroke-linecap="round" stroke-linejoin="round" stroke-width="3.000000"
	d="
M236.500000,97.000000 
	C225.278778,98.297432 216.358994,103.628494 209.529343,112.522530 
	C208.583359,113.754448 208.236145,115.464310 206.500000,116.000000 
"/>
<path fill="none" opacity="1.000000" stroke="#000000" stroke-linecap="round" stroke-linejoin="round" stroke-width="4.000000"
	d="
M534.000000,382.500000 
	C535.119324,390.666656 534.160522,398.833344 534.601929,407.500000 
	C531.858154,407.500000 529.679077,407.500000 527.500000,407.500000 
"/>
<path fill="none" opacity="1.000000" stroke="#000000" stroke-linecap="round" stroke-linejoin="round" stroke-width="3.000000"
	d="
M645.500000,596.000000 
	C635.166687,596.000000 624.833313,596.000000 614.500000,596.000000 
"/>
<path fill="none" opacity="1.000000" stroke="#000000" stroke-linecap="round" stroke-linejoin="round" stroke-width="3.000000"
	d="
M491.000000,560.000000 
	C492.853516,564.781738 496.402740,566.459839 499.496094,563.995056 
	C501.249969,562.597595 502.604218,560.870056 501.955811,558.512146 
	C501.284790,556.072083 499.651581,554.291809 496.996368,554.037842 
	C494.608063,553.809387 492.530853,554.533569 491.501953,557.000793 
	C491.156555,557.829102 490.833313,558.666687 490.499969,559.500000 
"/>
<path fill="none" opacity="1.000000" stroke="#000000" stroke-linecap="round" stroke-linejoin="round" stroke-width="3.000000"
	d="
M716.000000,438.000000 
	C707.982117,443.952942 698.475891,445.178009 689.000061,446.500488 
	C687.832825,446.663391 686.666687,446.833374 685.500000,447.000031 
"/>
<path fill="none" opacity="1.000000" stroke="#000000" stroke-linecap="round" stroke-linejoin="round" stroke-width="3.000000"
	d="
M114.500000,53.500000 
	C110.311790,55.622169 107.913437,59.202824 109.597305,61.426308 
	C110.921753,63.175194 112.262466,65.224892 115.528732,64.668755 
	C118.382866,64.182793 119.801270,62.702560 120.407990,60.474937 
	C121.099342,57.936531 120.057510,55.711464 117.496490,54.507469 
	C116.685646,54.126282 115.833336,53.833332 115.000000,53.499996 
"/>
<path fill="none" opacity="1.000000" stroke="#000000" stroke-linecap="round" stroke-linejoin="round" stroke-width="3.000000"
	d="
M431.000000,502.500000 
	C431.000000,512.500000 431.000000,522.500000 431.000000,532.500000 
"/>
<path fill="none" opacity="1.000000" stroke="#000000" stroke-linecap="round" stroke-linejoin="round" stroke-width="3.000000"
	d="
M529.500000,208.500000 
	C518.392090,209.694565 511.686615,216.569077 507.026855,226.013245 
	C506.333771,227.417969 506.000031,229.000015 505.500031,230.500015 
"/>
<path fill="none" opacity="1.000000" stroke="#000000" stroke-linecap="round" stroke-linejoin="round" stroke-width="3.000000"
	d="
M424.000000,256.500000 
	C424.000000,266.500000 424.000000,276.500000 424.000000,286.500000 
"/>
<path fill="none" opacity="1.000000" stroke="#000000" stroke-linecap="round" stroke-linejoin="round" stroke-width="3.000000"
	d="
M703.500000,491.000000 
	C689.826172,488.589508 683.712646,492.207733 679.000000,505.500000 
"/>
<path fill="none" opacity="1.000000" stroke="#000000" stroke-linecap="round" stroke-linejoin="round" stroke-width="3.000000"
	d="
M449.000000,595.000000 
	C439.834503,594.972595 426.714264,608.591003 427.000000,617.500000 
"/>
<path fill="none" opacity="1.000000" stroke="#000000" stroke-linecap="round" stroke-linejoin="round" stroke-width="4.000000"
	d="
M108.500000,573.500000 
	C102.500000,573.500000 96.500000,573.500000 90.481071,573.500000 
	C89.584663,577.132629 90.162979,580.833191 90.000000,584.500000 
"/>
<path fill="none" opacity="1.000000" stroke="#000000" stroke-linecap="round" stroke-linejoin="round" stroke-width="3.000000"
	d="
M349.500000,507.000000 
	C340.500000,507.000000 331.500000,507.000000 322.500000,507.000000 
"/>
<path fill="none" opacity="1.000000" stroke="#000000" stroke-linecap="round" stroke-linejoin="round" stroke-width="3.000000"
	d="
M315.500000,132.000000 
	C324.782654,138.042465 328.654449,146.525116 327.000000,157.500000 
"/>
<path fill="none" opacity="1.000000" stroke="#000000" stroke-linecap="round" stroke-linejoin="round" stroke-width="4.000000"
	d="
M711.500000,160.500000 
	C711.500000,163.166672 711.582153,165.836472 711.480286,168.499252 
	C711.335632,172.279984 709.280273,174.353607 705.499268,174.477249 
	C702.169495,174.586121 698.833313,174.500000 695.500000,174.500000 
"/>
<path fill="none" opacity="1.000000" stroke="#000000" stroke-linecap="round" stroke-linejoin="round" stroke-width="3.000000"
	d="
M235.500000,487.000000 
	C244.506561,492.769165 248.642609,500.725098 246.500000,511.500000 
"/>
<path fill="none" opacity="1.000000" stroke="#000000" stroke-linecap="round" stroke-linejoin="round" stroke-width="3.000000"
	d="
M56.000000,515.000000 
	C62.315235,523.882690 62.157246,531.624146 55.500000,539.500000 
"/>
<path fill="none" opacity="1.000000" stroke="#000000" stroke-linecap="round" stroke-linejoin="round" stroke-width="4.000000"
	d="
M316.500000,219.000000 
	C313.666656,218.017136 310.833344,218.704880 307.833282,218.445221 
	C306.932251,223.445602 308.215607,228.065353 307.000000,232.500000 
"/>
<path fill="none" opacity="1.000000" stroke="#000000" stroke-linecap="round" stroke-linejoin="round" stroke-width="4.000000"
	d="
M361.500000,484.500000 
	C355.166656,484.500000 348.833344,484.500000 342.500000,484.500000 
"/>
<path fill="none" opacity="1.000000" stroke="#000000" stroke-linecap="round" stroke-linejoin="round" stroke-width="3.000000"
	d="
M128.500000,715.000000 
	C120.680038,717.085266 118.276230,722.407959 121.500000,730.500000 
"/>
<path fill="none" opacity="1.000000" stroke="#000000" stroke-linecap="round" stroke-linejoin="round" stroke-width="3.000000"
	d="
M509.500000,475.000000 
	C500.667267,478.589233 500.039093,484.412445 503.000000,491.500000 
"/>
<path fill="none" opacity="1.000000" stroke="#000000" stroke-linecap="round" stroke-linejoin="round" stroke-width="3.000000"
	d="
M307.500000,1.500000 
	C300.651062,2.854683 296.826813,7.510277 296.000000,15.500000 
"/>
<path fill="none" opacity="1.000000" stroke="#000000" stroke-linecap="round" stroke-linejoin="round" stroke-width="3.000000"
	d="
M740.500000,733.000000 
	C734.833313,733.000000 729.166687,733.000000 723.500000,733.000000 
"/>
<path fill="none" opacity="1.000000" stroke="#000000" stroke-linecap="round" stroke-linejoin="round" stroke-width="3.000000"
	d="
M18.500000,733.500000 
	C12.861630,732.371216 7.162924,733.293945 1.500000,733.000000 
"/>
<path fill="none" opacity="1.000000" stroke="#000000" stroke-linecap="round" stroke-linejoin="round" stroke-width="3.000000"
	d="
M406.000000,98.500000 
	C398.848877,102.685875 397.355194,106.759537 400.500000,113.500000 
"/>
<path fill="none" opacity="1.000000" stroke="#000000" stroke-linecap="round" stroke-linejoin="round" stroke-width="3.000000"
	d="
M617.500000,268.500000 
	C617.675964,274.210663 615.889404,279.430695 613.500000,284.500000 
"/>
<path fill="none" opacity="1.000000" stroke="#000000" stroke-linecap="round" stroke-linejoin="round" stroke-width="3.000000"
	d="
M319.500000,739.000000 
	C314.345306,737.953125 309.555176,740.551880 304.500000,740.500000 
"/>
<path fill="none" opacity="1.000000" stroke="#000000" stroke-linecap="round" stroke-linejoin="round" stroke-width="4.000000"
	d="
M18.500000,3.500000 
	C13.166667,3.500000 7.833333,3.500000 2.500000,3.500000 
"/>
<path fill="none" opacity="1.000000" stroke="#000000" stroke-linecap="round" stroke-linejoin="round" stroke-width="3.000000"
	d="
M185.000000,700.000000 
	C180.166672,695.496765 175.333328,697.910583 170.500000,700.000000 
"/>
<path fill="none" opacity="1.000000" stroke="#000000" stroke-linecap="round" stroke-linejoin="round" stroke-width="3.000000"
	d="
M538.500000,656.500000 
	C538.661316,661.498657 536.321899,665.872131 535.000000,670.500000 
"/>
<path fill="none" opacity="1.000000" stroke="#000000" stroke-linecap="round" stroke-linejoin="round" stroke-width="3.000000"
	d="
M566.000000,460.500000 
	C561.692200,455.143555 557.071228,458.242889 552.500000,460.000000 
"/>
<path fill="none" opacity="1.000000" stroke="#000000" stroke-linecap="round" stroke-linejoin="round" stroke-width="3.000000"
	d="
M219.000000,16.500000 
	C220.117905,21.361340 222.362473,26.431322 216.500000,30.000000 
"/>
<path fill="none" opacity="1.000000" stroke="#000000" stroke-linecap="round" stroke-linejoin="round" stroke-width="3.000000"
	d="
M498.000000,140.500000 
	C498.687103,144.970764 501.186920,149.804047 495.500000,153.000000 
"/>
<path fill="none" opacity="1.000000" stroke="#000000" stroke-linecap="round" stroke-linejoin="round" stroke-width="3.000000"
	d="
M430.500000,2.000000 
	C427.701813,3.575231 427.383606,7.077775 425.016205,9.019747 
	C423.254730,10.464705 422.027832,12.621616 419.500000,13.000000 
"/>
<path fill="none" opacity="1.000000" stroke="#000000" stroke-linecap="round" stroke-linejoin="round" stroke-width="3.000000"
	d="
M600.500000,518.500000 
	C603.045593,522.880676 601.003052,526.687866 599.000000,530.500000 
"/>
<path fill="none" opacity="1.000000" stroke="#000000" stroke-linecap="round" stroke-linejoin="round" stroke-width="3.000000"
	d="
M500.500031,2.499996 
	C501.000031,6.166663 501.500031,9.833329 502.000031,13.499996 
"/>
<path fill="none" opacity="1.000000" stroke="#000000" stroke-linecap="round" stroke-linejoin="round" stroke-width="4.000000"
	d="
M332.500000,484.500000 
	C329.166656,484.500000 325.833344,484.500000 322.500000,484.500000 
"/>
<path fill="none" opacity="1.000000" stroke="#000000" stroke-linecap="round" stroke-linejoin="round" stroke-width="3.000000"
	d="
M715.500000,733.000000 
	C712.500000,733.000000 709.500000,733.000000 706.500000,733.000000 
"/>
<path fill="none" opacity="1.000000" stroke="#000000" stroke-linecap="round" stroke-linejoin="round" stroke-width="3.000000"
	d="
M604.500000,596.000000 
	C601.500000,596.000000 598.500000,596.000000 595.500000,596.000000 
"/>
<path fill="none" opacity="1.000000" stroke="#000000" stroke-linecap="round" stroke-linejoin="round" stroke-width="3.000000"
	d="
M735.000000,564.500000 
	C735.640808,567.036316 737.845337,568.334900 739.565002,569.929932 
	C740.480408,570.778992 740.517029,571.526489 740.500000,572.500000 
"/>
<path fill="none" opacity="1.000000" stroke="#000000" stroke-linecap="round" stroke-linejoin="round" stroke-width="4.000000"
	d="
M172.500000,248.500000 
	C169.833328,248.500000 167.166672,248.500000 164.500000,248.500000 
"/>
<path fill="none" opacity="1.000000" stroke="#000000" stroke-linecap="round" stroke-linejoin="round" stroke-width="3.000000"
	d="
M464.500000,83.000000 
	C459.500000,80.148911 454.500000,80.389267 449.500000,83.000000 
"/>
<path fill="none" opacity="1.000000" stroke="#000000" stroke-linecap="round" stroke-linejoin="round" stroke-width="3.000000"
	d="
M392.500000,177.000000 
	C388.721832,178.196091 387.828308,181.266876 388.648651,184.461838 
	C389.201538,186.615128 391.131104,188.294388 394.003571,188.040329 
	C396.980927,187.776978 398.785645,185.978195 399.391541,183.473755 
	C400.034332,180.816757 398.566925,178.634506 395.985077,177.535034 
	C395.078522,177.148956 394.000000,177.166672 393.000000,177.000000 
"/>
</svg>